# xmcd
#
# Track frame offsets: 
#        150
#        47161
#        92459
#        138995
#        186080
#        232078
#
# Disc length: 3709 seconds
#
# Revision: 0
# Processed by: cddbd v1.5.2PL0 Copyright (c) Steve Scherf et al.
# Submitted via: ExactAudioCopy v1.0b3
#
DISCID=4a0e7b06
DTITLE=Staffan Biörklund-Jullander - Quiet Days
DYEAR=2009
DGENRE=New Age
TTITLE0=Sunglade
TTITLE1=Gentle Waves
TTITLE2=Midnight Sun
TTITLE3=Quiet Summer Rain
TTITLE4=Dreams
TTITLE5=Views from Särvfjället
EXTD=
EXTT0=
EXTT1=
EXTT2=
EXTT3=
EXTT4=
EXTT5=
PLAYORDER=
